<svg width="3173" height="1169" viewBox="0 0 3173 1169" fill="none" xmlns="http://www.w3.org/2000/svg">
<path d="M1766.97 0C1779.52 0.898993 1788.64 3.49534 1798.64 11.3813C1810.65 20.8203 1818.31 34.7337 1819.87 49.93C1823.77 86.117 1796.86 109.907 1763 113.481C1754.62 130.479 1741.42 156.09 1734.31 173.637C1732.73 177.553 1754.6 196.016 1759.18 202.12C1789.41 242.467 1790.16 267.982 1786.14 314.391C1813.24 314.094 1840.16 313.425 1867.27 313.44C1883.79 282.315 1922.89 269.527 1951.56 293.615C1991.84 327.472 1968.55 391.157 1916.85 392.713C1897.94 393.281 1886.11 384.822 1873.51 372.301C1841.8 371.761 1808.64 372.301 1776.83 372.339C1772.4 389.871 1768.32 398.805 1761.21 415.332C1763.61 419.245 1766.28 421.76 1769.35 425.067C1789.46 446.699 1810.83 467.502 1830.44 489.571C1851.46 489.879 1869.06 491.565 1883.14 510.355C1902.68 536.44 1899.16 571.701 1871.83 591.125C1847.13 608.685 1813.38 603.832 1795.57 578.716C1784.41 563.046 1784.42 546.11 1787.59 528.037C1780.74 519.103 1769.24 507.281 1761.37 498.701C1751.78 488.239 1740.45 475.271 1730.21 465.927C1719.88 476.324 1709.05 488.956 1698.4 499.856C1718.27 543.25 1721.85 563.326 1731.75 610.018C1789.87 618.793 1799.2 692.604 1748.44 716.648C1735.6 722.629 1720.91 723.319 1707.57 718.586C1694.02 713.695 1681.02 701.92 1675.32 688.756C1667.02 669.575 1670.9 652.75 1678.04 634.276C1670.5 606.189 1664.13 560.102 1651.04 536.542C1638.56 542.179 1630.13 548.644 1615.9 552.23C1575.75 562.348 1553.86 553.404 1520.43 534.959C1510.86 559.553 1505.94 580.551 1500.61 606.17C1498.6 615.803 1495.6 625.277 1493.83 635.152C1511.45 674.857 1498.92 707.77 1456.94 720.785C1391.69 734.321 1356.49 630.755 1439.93 609.859C1441.8 604.316 1443.35 597.86 1444.46 592.094C1450.76 559.376 1459.97 530.757 1473.12 500.219C1461.14 488.835 1453.28 479.463 1442.15 468.163C1436.44 472.355 1423.75 486.413 1418.48 492.124C1407.52 504.02 1395.31 516.653 1384.93 528.968C1385.95 534.53 1386.94 539.989 1387.2 545.523C1388.62 575.157 1362.48 602.127 1332.74 601.689C1317.2 601.456 1305.34 597.273 1294.17 586.187C1283.28 575.455 1277.26 560.745 1277.48 545.467C1277.78 505.446 1307.87 489.059 1343.76 489.767C1350.36 480.833 1367.2 463.589 1375.25 455.214C1387.17 442.656 1399.02 430.023 1410.79 417.326C1403.99 397.939 1399.58 390.496 1394.28 369.087C1383.56 368.296 1368.19 368.705 1357.11 368.705C1338.41 368.612 1319.71 368.687 1301.01 368.92C1286.51 383.266 1269.49 396.29 1248.1 392.079C1176.63 378.012 1189.77 272.389 1265.41 281.962C1283.11 284.203 1294.74 296.978 1304.29 310.765C1321.07 308.223 1367.23 309.412 1386.72 309.063C1385.87 297.107 1384.66 279.997 1385.9 268.389C1389.97 230.153 1410.82 200.265 1439.83 176.412C1437.43 169.689 1430.79 157.374 1427.36 150.538C1421.21 138.338 1415.28 126.027 1409.58 113.609C1405.96 113.326 1401.18 112.801 1397.65 111.964C1382.35 108.365 1369.11 98.811 1360.88 85.4211C1352.97 72.2175 1350.72 56.3794 1354.65 41.4981C1367.82 -7.39598 1435.57 -15.24 1458.01 30.685C1467.25 49.602 1464.58 64.4825 1458.08 83.7219C1459.92 88.4209 1462.26 93.3341 1464.62 97.8095C1473.7 114.967 1481.47 133.327 1490.61 150.383C1524.6 139.618 1548.9 138.084 1584.16 139.087C1604.16 139.655 1623.62 138.041 1643.79 140.615C1657.24 142.319 1670.49 145.479 1683.26 150.041C1688.74 136.858 1694.74 123.894 1701.23 111.176C1704.75 104.299 1713.25 88.8755 1715.35 82.4288C1698.81 40.0373 1720.07 2.7948 1766.97 0ZM1617.31 491.276C1631.99 481.28 1646.43 471.33 1659.7 459.443C1693.87 428.756 1717.16 387.803 1726.06 342.746C1728.97 327.679 1728.01 312.548 1730.09 299.259C1738.75 243.998 1698.39 207.89 1647.03 198.026C1621.62 193.144 1587.26 196.14 1560.68 195.418C1556.08 195.312 1550.9 195.327 1546.34 195.636C1511.77 197.913 1483.95 206.515 1460.13 233.448C1435.96 260.779 1442.17 281.677 1444.23 314.312C1447.85 371.454 1470.3 423.977 1514.72 461.101C1530.32 474.135 1568.95 504.011 1590.32 502.176C1599.89 501.356 1609.04 495.887 1617.31 491.276Z" fill="#C3272A"/>
<path d="M1638.51 292.03C1660.31 291.169 1667.72 308.713 1662.3 328.687C1660.23 336.294 1654.13 340.467 1647.28 343.731C1644.03 344.002 1641.32 344.297 1638.16 343.372C1632.67 341.753 1628.08 337.941 1625.47 332.831C1617.73 317.962 1623.3 299.672 1638.51 292.03Z" fill="#C3272A"/>
<path d="M1528.1 292.05C1550.03 290.887 1556.79 310.153 1551.06 329.302C1548.71 337.177 1542.14 340.82 1534.99 343.977C1507.67 345.124 1501.42 303.844 1528.1 292.05Z" fill="#C3272A"/>
<path d="M20.16 849.2H135.68C172.48 849.2 202.24 878 202.24 915.12C202.24 935.92 192.64 952.56 177.6 964.72C195.84 976.56 207.68 998.64 207.68 1024.24C207.68 1061.68 177.92 1091.76 141.12 1091.76H20.16V849.2ZM69.44 1039.28H132.16C144.96 1039.28 155.2 1029.36 155.2 1016.24C155.2 1002.8 144.96 991.92 132.16 991.92H69.44V1039.28ZM69.44 943.28H129.6C142.4 942.96 152 934 152 921.2C152 908.08 141.44 898.48 128.64 898.48H69.44V943.28ZM287.238 849.2V1043.12H399.237V1091.76H238.278V849.2H287.238ZM433.605 849.2H482.245V1091.76H433.605V849.2ZM763.933 849.2V1091.76H695.773L571.613 911.28V1091.76H522.333V849.2H587.613L714.973 1029.36V849.2H763.933ZM887.683 1042.8C927.363 1042.8 960.323 1010.48 960.323 970.48C960.323 930.48 927.363 898.16 887.683 898.16H856.003V1042.8H887.683ZM807.043 1091.76V849.2H888.643C955.203 849.2 1009.6 903.6 1009.6 970.48C1009.6 1037.36 955.203 1091.76 888.643 1091.76H807.043ZM1237.9 1094.32C1171.34 1094.32 1118.22 1038.32 1118.22 970.48C1118.22 902.64 1171.34 846.64 1237.9 846.64C1271.18 846.64 1300.94 860.72 1322.38 882.8L1291.66 919.92C1279.5 907.44 1256.14 899.76 1237.58 899.76C1200.46 899.76 1166.54 931.12 1166.54 970.48C1166.54 1010.16 1200.46 1041.52 1237.58 1041.52C1256.14 1041.52 1279.5 1033.52 1291.66 1021.04L1322.38 1058.16C1300.94 1080.24 1271.18 1094.32 1237.9 1094.32ZM1558.72 849.2V1091.76H1510.08V991.28H1402.56V1091.76H1353.92V849.2H1402.56V943.28H1510.08V849.2H1558.72ZM1742.73 849.2L1843.85 1091.76H1792.65L1768.33 1032.56H1663.05L1638.73 1091.76H1587.53L1688.65 849.2H1742.73ZM1686.41 978.16H1744.97L1715.85 907.44L1686.41 978.16ZM1914.43 849.2V1043.12H2026.42V1091.76H1865.47V849.2H1914.43ZM2102.86 849.2V1043.12H2214.86V1091.76H2053.9V849.2H2102.86ZM2410.98 849.2V897.2H2287.14V942.96H2400.42V991.28H2287.14V1043.44H2410.98V1091.76H2239.14V849.2H2410.98ZM2685.81 849.2V1091.76H2617.65L2493.49 911.28V1091.76H2444.21V849.2H2509.49L2636.85 1029.36V849.2H2685.81ZM2959.54 953.84C2960.82 962.16 2959.22 989.04 2959.22 989.04C2951.86 1051.76 2901.94 1094.32 2840.18 1094.32C2768.18 1094.32 2717.3 1039.6 2717.3 970.48C2717.3 901.68 2768.18 846.96 2840.18 846.96C2916.98 846.96 2944.82 905.2 2944.82 905.2L2901.94 929.52C2901.94 929.52 2882.42 895.92 2839.86 895.92C2799.22 895.92 2765.3 928.56 2765.3 970.48C2765.3 1012.72 2799.22 1045.36 2839.86 1045.36C2855.86 1045.36 2895.22 1035.76 2905.78 1000.88H2846.26V953.84H2959.54ZM3162.23 849.2V897.2H3038.39V942.96H3151.67V991.28H3038.39V1043.44H3162.23V1091.76H2990.39V849.2H3162.23Z" fill="#C3272A"/>
</svg>
